{"title":"Junooniyat 2016 Hindi Movies DVDScr XviD AAC with Sample ☻rDX☻","uid":15073440,"size":739068613,"categoryP":"video","categoryS":"movies","magnet":"?xt=urn:btih:822c6b2374cd01bdd97953d9ebd9cc749cc9fba4&amp;dn=Junooniyat+2016+Hindi+Movies+DVDScr+XviD+AAC+with+Sample+%E2%98%BBrDX%E2%98%BB&amp;tr=udp%3A%2F%2Ftracker.leechers-paradise.org%3A6969&amp;tr=udp%3A%2F%2Fzer0day.ch%3A1337&amp;tr=udp%3A%2F%2Fopen.demonii.com%3A1337&amp;tr=udp%3A%2F%2Ftracker.coppersurfer.tk%3A6969&amp;tr=udp%3A%2F%2Fexodus.desync.com%3A6969","seeders":4,"leechers":1,"uploader":"basicssom","files":2,"time":1466821326,"description":"----------------------------------------------------------------\r\nJunooniyat 2016 Hindi Movies DVDScr XviD AAC with Sample ☻rDX☻\r\n\r\nSCREEN SHOTS &amp; POSTER:\r\n  \nhttp://mobileshosting.com/2016/6/cpc/index.htm  \nhttp://mobileshosting.com/2016/6/cpc/1.html  \nhttp://mobileshosting.com/2016/6/cpc/2.html  \nhttp://mobileshosting.com/2016/6/cpc/3.html  \nhttp://mobileshosting.com/2016/6/cpc/4.html  \nhttp://mobileshosting.com/2016/6/cpc/5.html  \nhttp://mobileshosting.com/2016/6/cpc/6.html  \nhttp://mobileshosting.com/2016/6/cpc/7.html  \nhttp://mobileshosting.com/2016/6/cpc/8.html  \nhttp://mobileshosting.com/2016/6/cpc/9.html  \nhttp://mobileshosting.com/2016/6/cpc/10.html\r\n\r\nFormat                                   : Matroska\r\nFormat version                           : Version 4 / Version 2\r\nFile size                                : 698 MiB\r\nDuration                                 : 2h 2mn\r\nOverall bit rate                         : 798 Kbps\r\nMovie name                               : Junooniyat 2016 Hindi Movies DVDScr XviD AAC ☻rDX☻\r\n\r\nVideo\r\nID                                       : 1\r\nFormat                                   : AVC\r\nFormat/Info                              : Advanced Video Codec\r\nFormat profile                           :   \r\nFormat settings, CABAC                   : Yes\r\nFormat settings, ReFrames                : 4 frames\r\nCodec ID                                 : V_MPEG4/ISO/AVC\r\nDuration                                 : 2h 2mn\r\nBit rate                                 : 412 Kbps\r\nWidth                                    : 640 pixels\r\nHeight                                   : 272 pixels\r\nDisplay aspect ratio                     : 2.35:1\r\nFrame rate mode                          : Constant\r\nFrame rate                               : 25.000 fps\r\nColor space                              : YUV\r\nChroma subsampling                       : 4:2:0\r\nBit depth                                : 8 bits\r\nScan type                                : Progressive\r\nBits/(Pixel*Frame)                       : 0.095\r\nStream size                              : 348 MiB (50%)\r\nTitle                                    : ☻rDX☻\r\nWriting library                          : XviD\r\nDefault                                  : Yes\r\nForced                                   : No\r\n\r\nAudio\r\nID                                       : 2\r\nFormat                                   : AC-3\r\nFormat/Info                              : Audio Coding 3\r\nMode extension                           : CM (complete main)\r\nFormat settings, Endianness              : Big\r\nCodec ID                                 : A_AC3\r\nDuration                                 : 2h 2mn\r\nBit rate mode                            : Constant\r\nBit rate                                 : 384 Kbps\r\nChannel(s)                               : 6 channels\r\nChannel positions                        : Front: L C R, Side: L R, LFE\r\nSampling rate                            : 48.0 KHz\r\nBit depth                                : 16 bits\r\nCompression mode                         : Lossy\r\nStream size                              : 336 MiB (48%)\r\nTitle                                    : ☻rDX☻\r\nDefault                                  : Yes\r\nForced                                   : No\r\n\r\nIMDB \nhttp://www.imdb.com/title/tt3840534/","torrent":{"xt":"urn:btih:822c6b2374cd01bdd97953d9ebd9cc749cc9fba4","amp;dn":"Junooniyat+2016+Hindi+Movies+DVDScr+XviD+AAC+with+Sample+%E2%98%BBrDX%E2%98%BB","amp;tr":["udp%3A%2F%2Ftracker.leechers-paradise.org%3A6969","udp%3A%2F%2Fzer0day.ch%3A1337","udp%3A%2F%2Fopen.demonii.com%3A1337","udp%3A%2F%2Ftracker.coppersurfer.tk%3A6969","udp%3A%2F%2Fexodus.desync.com%3A6969"],"infoHash":"822c6b2374cd01bdd97953d9ebd9cc749cc9fba4","infoHashBuffer":{"type":"Buffer","data":[130,44,107,35,116,205,1,189,217,121,83,217,235,217,204,116,156,201,251,164]},"announce":[],"urlList":[]}}